<svg xmlns="http://www.w3.org/2000/svg" viewBox="0 0 192.74 248.88"><defs><style>.cls-1{fill:#f8f6ee;}.cls-2{fill:#594036;}.cls-3{fill:#f2d9c0;}.cls-4{fill:#ef9388;}.cls-5{fill:#f59d38;}.cls-6{fill:#dab99c;}.cls-7{fill:#9cd4f5;}.cls-8{fill:#fcfcfc;}</style></defs><g id="Calque_2" data-name="Calque 2"><g id="Calque_1-2" data-name="Calque 1"><path class="cls-1" d="M96.38,3.06c-.54,0-1.07,0-1.6,0V96c.53,0,1.06,0,1.6,0a46.47,46.47,0,0,0,0-92.93Z"/><path class="cls-2" d="M96.38,0c-.54,0-1.07,0-1.6,0V6.16c.53,0,1.06,0,1.6,0a43.41,43.41,0,0,1,0,86.81c-.54,0-1.07,0-1.6,0V99c.53,0,1.06,0,1.6,0a49.53,49.53,0,0,0,0-99Z"/><path class="cls-2" d="M122.42,32.12a1.76,1.76,0,0,1-.83-.21,1.79,1.79,0,0,1-.77-2.42c1.93-3.73,2.6-9.35,2-16.72a1.8,1.8,0,1,1,3.59-.3c.66,8-.14,14.34-2.38,18.67A1.8,1.8,0,0,1,122.42,32.12Z"/><path class="cls-2" d="M109.87,23.27a1.8,1.8,0,0,1-1.71-2.37c1.34-4.06,1-10.09.83-13.69,0-.72-.07-1.35-.08-1.85a1.8,1.8,0,0,1,3.6-.09c0,.46,0,1.06.08,1.75.2,3.86.54,10.3-1,15A1.8,1.8,0,0,1,109.87,23.27Z"/><path class="cls-1" d="M103.35,31.88H94.78v183H123.9a53.43,53.43,0,0,0,53.44-53.43V105.86A74,74,0,0,0,103.35,31.88Z"/><path class="cls-2" d="M157.83,51.38a76.55,76.55,0,0,0-54.48-22.57H94.78v6.13h8.57a71,71,0,0,1,70.93,70.92v55.55a50.43,50.43,0,0,1-50.38,50.37H94.78v6.12H123.9a56.55,56.55,0,0,0,56.5-56.49V105.86A76.51,76.51,0,0,0,157.83,51.38Z"/><path class="cls-3" d="M176.41,139.89H154.84v40h18.71a16.13,16.13,0,0,0,16.12-16.13V153.16A13.27,13.27,0,0,0,176.41,139.89Z"/><path class="cls-2" d="M173.55,182.93H154.84a3.06,3.06,0,0,1-3.06-3.06v-40a3.06,3.06,0,0,1,3.06-3.06h21.57a16.35,16.35,0,0,1,16.33,16.33v10.58A19.21,19.21,0,0,1,173.55,182.93ZM157.9,176.8h15.65a13.08,13.08,0,0,0,13.06-13.06V153.16A10.22,10.22,0,0,0,176.41,143H157.9Z"/><path class="cls-2" d="M174,171.91a5.33,5.33,0,0,1-3.76-1.46,5.84,5.84,0,0,1-1.65-5.12,7.86,7.86,0,0,1,2.15-4.17,2.34,2.34,0,0,1,3.4,3.22,3.28,3.28,0,0,0-.92,1.66,1.3,1.3,0,0,0,.25,1,.91.91,0,0,0,.57.16,1.75,1.75,0,0,0,1.16-.51,4,4,0,0,0,.66-3.33,17.48,17.48,0,0,0-1.56-4.14l-.26-.57a16,16,0,0,1-1.82-6.32,6.78,6.78,0,0,1,3.43-6.43,6.05,6.05,0,0,1,5.53.25,7.83,7.83,0,0,1,3.23,3.69,2.34,2.34,0,0,1-4.27,1.91,3.2,3.2,0,0,0-1.26-1.52,1.39,1.39,0,0,0-1.17-.13,2.38,2.38,0,0,0-.81,2.1,12.23,12.23,0,0,0,1.38,4.48l.26.55a21.59,21.59,0,0,1,1.93,5.31,8.47,8.47,0,0,1-1.83,7.33,6.48,6.48,0,0,1-4.45,2Z"/><path class="cls-3" d="M114.74,51h-20v194.8c.54,0,1.08,0,1.6,0,24.26,0,67.34-32.67,67.34-69.86V100A49,49,0,0,0,114.74,51Z"/><path class="cls-2" d="M114.74,47.91h-20V54h20A46,46,0,0,1,160.66,100v76c0,15.71-8.6,32.71-23.6,46.63-13,12.07-29.34,20.17-40.68,20.17-.52,0-1.06,0-1.6-.07v6.13c.54,0,1.08.06,1.6.06,13,0,30.59-8.55,44.85-21.8A89.78,89.78,0,0,0,159.31,204a59.44,59.44,0,0,0,7.47-28V100A52.09,52.09,0,0,0,114.74,47.91Z"/><path class="cls-2" d="M131.68,136.69a9.27,9.27,0,0,0-9.26,9.26v8.82a9.27,9.27,0,1,0,18.53,0V146A9.27,9.27,0,0,0,131.68,136.69Z"/><path class="cls-2" d="M151.31,136.2a4,4,0,0,1-1.67-.37,35.11,35.11,0,0,0-30.69,0,4,4,0,0,1-3.38-7.17,42.79,42.79,0,0,1,37.42,0,4,4,0,0,1-1.68,7.55Z"/><path class="cls-2" d="M145.64,146.05c-2.15,0-4.14-1.05-6.24-2.17-3.34-1.78-6.49-3.46-10.36-1.3a2.52,2.52,0,0,1-2.46-4.4c6.28-3.5,11.43-.76,15.19,1.25,1.47.78,3,1.58,3.87,1.58a2.52,2.52,0,0,1,0,5Z"/><path class="cls-2" d="M111.12,179.18a3.06,3.06,0,0,0-4.26-.73c-4.13,2.92-8.08,3.91-12.08,3v6.19a18.38,18.38,0,0,0,2.86.23,22,22,0,0,0,12.75-4.42A3.06,3.06,0,0,0,111.12,179.18Z"/><path class="cls-4" d="M96.6,207.28a13.8,13.8,0,0,1-1.82-.13v10.9c.53,0,1.06,0,1.6,0,7.43,0,13.45-2.34,13.45-7.13C109.83,200.62,104,207.28,96.6,207.28Z"/><path class="cls-2" d="M115.94,207a2.33,2.33,0,0,0-3.11-1.13,38.08,38.08,0,0,1-18,3.84v4.65c.53,0,1.07,0,1.6,0a43.18,43.18,0,0,0,18.43-4.29A2.34,2.34,0,0,0,115.94,207Z"/><path class="cls-2" d="M136.17,165.46c-7.09,0-15.44-1.63-17.74-2.54a.9.9,0,0,1,.67-1.68c2.79,1.12,15.84,3.45,22.7,1.92a.9.9,0,0,1,.4,1.76A29.12,29.12,0,0,1,136.17,165.46Z"/><path class="cls-2" d="M136.44,183a26.06,26.06,0,0,1-7.95-.92.91.91,0,0,1-.52-1.16.89.89,0,0,1,1.16-.52c3.94,1.49,20.05,1.14,25.27-3.4a.9.9,0,0,1,1.18,1.36C151.71,181.69,143.13,183,136.44,183Z"/><path class="cls-2" d="M125.81,203.86a.9.9,0,0,1-.9-.9c0-4.67-4.47-12.87-6.68-14.1a.9.9,0,1,1,.88-1.57c2.89,1.61,7.6,10.63,7.6,15.67A.9.9,0,0,1,125.81,203.86Z"/><path class="cls-2" d="M164.72,108.53a1.8,1.8,0,0,1,0-3.6c4,0,6.43-.33,9.23-2.16a1.8,1.8,0,0,1,2,3C172.05,108.32,168.56,108.53,164.72,108.53Z"/><path class="cls-2" d="M164.72,120.89a1.8,1.8,0,0,1,0-3.6c4,0,6.43-.32,9.23-2.16a1.8,1.8,0,0,1,2,3C172.05,120.69,168.56,120.89,164.72,120.89Z"/><path class="cls-2" d="M164.72,133.26a1.8,1.8,0,0,1,0-3.6c4,0,6.43-.33,9.23-2.16a1.8,1.8,0,0,1,2,3C172.05,133.05,168.56,133.26,164.72,133.26Z"/><path class="cls-1" d="M101.56,37.64H94.78V85l1.6,0c22.84,0,35.59-6.33,42.16-10.5,9.85-6.25,25.18,1.68,25.18,26.65h7.11C170.83,62.89,139.82,37.64,101.56,37.64Z"/><path class="cls-2" d="M134.29,68.13a1.8,1.8,0,0,1-1.61-2.61,25.62,25.62,0,0,0-2.38-26.86,1.8,1.8,0,0,1,2.76-2.32,28.93,28.93,0,0,1,2.84,30.8A1.8,1.8,0,0,1,134.29,68.13Z"/><path class="cls-2" d="M105.81,86.41a1.8,1.8,0,0,1-1.16-3.18c5.29-4.44,8.35-14.28,7.27-23.41a1.8,1.8,0,0,1,3.58-.42C116.71,69.64,113.12,80.83,107,86A1.77,1.77,0,0,1,105.81,86.41Z"/><path class="cls-4" d="M175.74,172.44a6.71,6.71,0,1,0,6.71,6.71A6.7,6.7,0,0,0,175.74,172.44Z"/><path class="cls-2" d="M175.74,188.19a9,9,0,1,1,9-9A9.05,9.05,0,0,1,175.74,188.19Zm0-13.41a4.37,4.37,0,1,0,4.37,4.37A4.37,4.37,0,0,0,175.74,174.78Z"/><rect class="cls-5" x="96.34" y="105.02" width="0.39" height="58.77"/><rect class="cls-5" x="15.4" y="105.02" width="80.94" height="58.77"/><rect class="cls-2" x="96.34" y="160.57" width="0.39" height="6.44"/><rect class="cls-2" x="96.34" y="101.8" width="0.39" height="6.44"/><path class="cls-2" d="M12.39,105V163.8a3.12,3.12,0,0,0,3,3.22H96.34v-6.45H18.4V108.24H96.34V101.8H15.4A3.12,3.12,0,0,0,12.39,105Z"/><path class="cls-3" d="M3,138H14.18a23,23,0,0,1,23,23v11.93a13.62,13.62,0,0,1-13.62,13.62H3a0,0,0,0,1,0,0V138A0,0,0,0,1,3,138Z" transform="translate(40.15 324.56) rotate(180)"/><path class="cls-2" d="M37.14,189.76H25.64C11.5,189.76,0,177.43,0,162.28v-9.87c0-9.71,7.37-17.61,16.43-17.61H37.14a3.12,3.12,0,0,1,3,3.22v48.52A3.12,3.12,0,0,1,37.14,189.76ZM16.43,141.24c-5.74,0-10.42,5-10.42,11.17v9.87c0,11.6,8.8,21,19.63,21h8.5V141.24Z"/><path class="cls-2" d="M20.94,175h-.18a6.14,6.14,0,0,1-4.38-2.11,9.37,9.37,0,0,1-1.78-7.72,23.05,23.05,0,0,1,1.89-5.58l.25-.58a13.35,13.35,0,0,0,1.35-4.71,2.57,2.57,0,0,0-.79-2.21,1.25,1.25,0,0,0-1.15.14,3.25,3.25,0,0,0-1.23,1.6,2.25,2.25,0,0,1-3,1.24,2.54,2.54,0,0,1-1.16-3.26A8,8,0,0,1,13.89,148a5.58,5.58,0,0,1,5.43-.28c2.12,1.12,3.45,3.77,3.37,6.78a18.15,18.15,0,0,1-1.78,6.65l-.26.59a19,19,0,0,0-1.53,4.36,4.43,4.43,0,0,0,.64,3.5,1.67,1.67,0,0,0,1.14.54.82.82,0,0,0,.56-.17,1.42,1.42,0,0,0,.25-1.09,3.56,3.56,0,0,0-.9-1.74,2.58,2.58,0,0,1,.08-3.48,2.19,2.19,0,0,1,3.25.09,8.45,8.45,0,0,1,2.11,4.39,6.43,6.43,0,0,1-1.61,5.39A5.12,5.12,0,0,1,20.94,175Z"/><path class="cls-3" d="M31.67,92v97.87c0,35.85,27.12,55.82,60.57,55.82h4.1V48.58H72.15C49.8,48.58,31.67,68,31.67,92Z"/><rect class="cls-3" x="96.34" y="48.58" width="0.39" height="197.09"/><rect class="cls-2" x="96.34" y="242.44" width="0.39" height="6.44"/><rect class="cls-2" x="96.34" y="45.35" width="0.39" height="6.44"/><path class="cls-2" d="M28.67,92v97.87c0,18,6.52,33.2,18.86,43.86,11.32,9.79,27.2,15.18,44.71,15.18h4.1v-6.44h-4.1c-28.65,0-57.56-16.26-57.56-52.6V92c0-22.15,16.81-40.17,37.47-40.17H96.34V45.35H72.15C48.18,45.35,28.67,66.27,28.67,92Z"/><path class="cls-2" d="M79,206.71a2.59,2.59,0,0,0,.12,3.49c5.65,5.63,11.44,8.7,17.24,9.14v-5c-4.68-.44-9.37-3-14.11-7.76A2.2,2.2,0,0,0,79,206.71Z"/><path class="cls-2" d="M96.34,214.35v5h.38v-5Z"/><path class="cls-2" d="M60.7,137.47c7,0,12.62,6.06,12.62,13.53v7.33c0,7.47-5.65,13.53-12.62,13.53s-12.61-6.06-12.61-13.53V151C48.09,143.53,53.74,137.47,60.7,137.47Z"/><path class="cls-2" d="M77.53,137.4a4.21,4.21,0,0,1-2-.49c-8-4.25-20.24-7.16-30.44-2.57a4.33,4.33,0,0,1-5.79-2.53,4.88,4.88,0,0,1,2.37-6.21c16.29-7.33,33,.3,37.78,2.82a4.9,4.9,0,0,1,2,6.34A4.41,4.41,0,0,1,77.53,137.4Z"/><path class="cls-6" d="M64.12,177.06a3.29,3.29,0,1,1-3.07,3.29A3.18,3.18,0,0,1,64.12,177.06Z"/><path class="cls-6" d="M58,192.27a3.29,3.29,0,1,1-3.07,3.28A3.18,3.18,0,0,1,58,192.27Z"/><path class="cls-6" d="M48.56,178.12a3.29,3.29,0,1,1-3.06,3.28A3.18,3.18,0,0,1,48.56,178.12Z"/><path class="cls-5" d="M63.13,95.93c2.59,6.34,18.15,18.72,29.94,24.28a53.22,53.22,0,0,1,0-12.14l3.27,1.43V51.31H63.13Z"/><path class="cls-5" d="M96.34,51.31V109.5l.38.16V51.31Z"/><path class="cls-2" d="M96.34,106v7l.38.16v-6.94Z"/><rect class="cls-2" x="96.34" y="48.09" width="0.39" height="6.44"/><path class="cls-2" d="M60.13,51.31V95.93a3.37,3.37,0,0,0,.25,1.29c3.11,7.61,19.76,20.41,31.48,25.94a2.84,2.84,0,0,0,3-.34,3.34,3.34,0,0,0,1.23-2.92,66.63,66.63,0,0,1-.29-7.18l.57.25v-7c-1.3-.56-2.08-.91-2.12-.93a2.88,2.88,0,0,0-2.6.15,3.23,3.23,0,0,0-1.51,2.27,43.35,43.35,0,0,0-.35,7.39C79.35,109,68.53,99.7,66.14,95.17V54.53h30.2V48.09H63.13A3.11,3.11,0,0,0,60.13,51.31Z"/><path class="cls-7" d="M85.85,13.71V23.94H96.34V3.22h-.71C90.23,3.22,85.85,7.92,85.85,13.71Z"/><rect class="cls-7" x="96.34" y="3.22" width="0.39" height="20.72"/><path class="cls-2" d="M82.84,13.71V23.94a3.12,3.12,0,0,0,3,3.22H96.34V20.72H88.85v-7a7,7,0,0,1,6.78-7.27h.71V0h-.71C88.58,0,82.84,6.15,82.84,13.71Z"/><rect class="cls-2" x="96.34" y="20.72" width="0.39" height="6.44"/><rect class="cls-2" x="96.34" width="0.39" height="6.44"/><path class="cls-7" d="M39,29.06C25.32,32.33,15.62,45.29,15.58,60.27l-.18,50.18A533.26,533.26,0,0,1,96.34,104V87.13q-13.19,0-26.36.72V81.61c0-12.3,9.3-22.26,20.76-22.26h5.6V16.59A58.14,58.14,0,0,0,84.4,18.14Z"/><path class="cls-2" d="M38.3,25.91A32.87,32.87,0,0,0,19.82,38.26a37.06,37.06,0,0,0-7.25,22l-.18,50.19a3.36,3.36,0,0,0,1,2.45,2.85,2.85,0,0,0,2.4.75,530.77,530.77,0,0,1,80.51-6.38v-6.44a533.55,533.55,0,0,0-77.93,5.92l.17-46.46c0-13.57,8.69-25.11,21-28.08L85.05,21.28a55.07,55.07,0,0,1,11.29-1.45V13.38A60.07,60.07,0,0,0,83.74,15Z"/><path class="cls-2" d="M96.34,100.82v6.44h.38v-6.45Z"/><path class="cls-2" d="M96.34,13.38v6.45h.38V13.38Z"/><rect class="cls-2" x="96.34" y="56.13" width="0.39" height="6.44"/><path class="cls-2" d="M96.34,83.91v6.44h.38V83.91Z"/><path class="cls-2" d="M67,81.61v6.24a3.32,3.32,0,0,0,.93,2.34,2.85,2.85,0,0,0,2.22.88c8.69-.46,17.45-.69,26.21-.72V83.91c-7.8,0-15.6.21-23.35.57V81.61c0-10.5,8-19,17.75-19h5.6V56.13h-5.6C77.64,56.13,67,67.56,67,81.61Z"/><path class="cls-2" d="M96.34,13.4v6.43l.38,0V13.39Z"/><path class="cls-2" d="M55.13,26c-11,3.71-18.67,17.81-18.7,34.27l-.13,46a3.13,3.13,0,0,0,3,3.23h0a3.11,3.11,0,0,0,3-3.22l.13-46c0-13.47,6.12-25.31,14.5-28.14L89.19,21.21a26.84,26.84,0,0,1,7.15-1.38V13.4a32.29,32.29,0,0,0-9,1.67Z"/><path class="cls-8" d="M96.34,87.13V104h.38V87.13Z"/><path class="cls-8" d="M70,104.74q13.18-.7,26.36-.73V87.13q-13.19,0-26.36.72Z"/><path class="cls-2" d="M67,87.85v16.89a3.31,3.31,0,0,0,.93,2.33,2.9,2.9,0,0,0,2.22.89c8.69-.46,17.45-.7,26.21-.72v-6.45c-7.8,0-15.6.21-23.35.57V90.93c7.75-.37,15.55-.56,23.35-.58V83.91q-13.29,0-26.51.73A3.12,3.12,0,0,0,67,87.85Z"/><path class="cls-2" d="M96.34,100.79v6.45h.38v-6.45Z"/><path class="cls-2" d="M96.34,83.91v6.44h.38V83.91Z"/><ellipse class="cls-2" cx="84.7" cy="95.93" rx="3.13" ry="3.36"/><path class="cls-2" d="M94.65,95.93a3.38,3.38,0,0,0,1.69,3V93A3.4,3.4,0,0,0,94.65,95.93Z"/><path class="cls-2" d="M96.34,93v5.93c.12.07.25.11.38.17V92.8Z"/></g></g></svg>